<svg width="30" height="30" viewBox="0 0 30 30" fill="none" xmlns="http://www.w3.org/2000/svg">
<path d="M27.9877 7.83764C26.6463 5.53943 24.8269 3.71993 22.5289 2.37873C20.2305 1.03747 17.7214 0.367004 14.9998 0.367004C12.2784 0.367004 9.76851 1.03767 7.47064 2.37873C5.17242 3.71986 3.35306 5.53943 2.01173 7.83764C0.670598 10.1358 0 12.6454 0 15.3664C0 18.6349 0.953599 21.574 2.86128 24.1845C4.76875 26.7952 7.23292 28.6017 10.2536 29.6042C10.6052 29.6695 10.8655 29.6236 11.0347 29.4677C11.204 29.3115 11.2886 29.116 11.2886 28.882C11.2886 28.8429 11.2852 28.4915 11.2787 27.8273C11.272 27.1631 11.2689 26.5837 11.2689 26.0894L10.8197 26.1671C10.5332 26.2195 10.1719 26.2418 9.73567 26.2355C9.29965 26.2294 8.84699 26.1837 8.37833 26.0987C7.90947 26.0145 7.47337 25.8192 7.0697 25.5132C6.66623 25.2072 6.37981 24.8067 6.2105 24.3123L6.0152 23.8628C5.88502 23.5636 5.68007 23.2312 5.40008 22.8669C5.12009 22.5022 4.83695 22.255 4.55053 22.1248L4.41378 22.0269C4.32266 21.9619 4.23811 21.8834 4.15992 21.7923C4.0818 21.7013 4.02331 21.6102 3.98425 21.5189C3.94512 21.4276 3.97755 21.3527 4.08187 21.2939C4.18619 21.2352 4.37472 21.2066 4.64828 21.2066L5.03875 21.265C5.29918 21.3172 5.62131 21.4731 6.00555 21.7337C6.38959 21.994 6.70529 22.3325 6.95272 22.749C7.25235 23.2829 7.61333 23.6898 8.03671 23.9698C8.45974 24.2498 8.88626 24.3896 9.31586 24.3896C9.74546 24.3896 10.1165 24.357 10.4291 24.2922C10.7414 24.2271 11.0344 24.1292 11.3079 23.9991C11.4251 23.1264 11.7442 22.4559 12.2648 21.9872C11.5227 21.9093 10.8556 21.7918 10.263 21.6356C9.67069 21.4792 9.05865 21.2255 8.42725 20.8736C7.7955 20.5222 7.27143 20.0858 6.8549 19.5652C6.4383 19.0443 6.0964 18.3605 5.82968 17.5144C5.56282 16.6679 5.42936 15.6915 5.42936 14.5848C5.42936 13.009 5.94378 11.6681 6.97242 10.5613C6.49056 9.3766 6.53605 8.04854 7.10903 6.57723C7.48664 6.45992 8.04663 6.54796 8.78871 6.84081C9.53093 7.1338 10.0744 7.38478 10.4195 7.59288C10.7647 7.80091 11.0413 7.97719 11.2497 8.12016C12.4608 7.78175 13.7107 7.61251 14.9996 7.61251C16.2886 7.61251 17.5387 7.78175 18.7499 8.12016L19.4921 7.65164C19.9996 7.33902 20.5989 7.05253 21.2886 6.7921C21.9787 6.53181 22.5064 6.46012 22.8711 6.57744C23.4568 8.04881 23.509 9.37681 23.027 10.5615C24.0556 11.6683 24.5702 13.0096 24.5702 14.585C24.5702 15.6917 24.4363 16.6712 24.1698 17.5242C23.9031 18.3773 23.5582 19.0604 23.1352 19.575C22.7117 20.0895 22.1842 20.5224 21.5528 20.8738C20.9213 21.2254 20.3091 21.4792 19.7168 21.6356C19.1242 21.7919 18.4571 21.9095 17.715 21.9876C18.3918 22.5733 18.7303 23.4978 18.7303 24.7607V28.8814C18.7303 29.1155 18.8117 29.3109 18.9746 29.4671C19.1374 29.623 19.3944 29.6689 19.746 29.6036C22.7671 28.6012 25.2313 26.7946 27.1387 24.1839C29.0459 21.5734 29.9998 18.6343 29.9998 15.3658C29.9991 12.6452 29.3282 10.1358 27.9877 7.83764Z" fill="url(#paint0_linear)"/>
<defs>
<linearGradient id="paint0_linear" x1="14.9999" y1="0.367004" x2="14.9999" y2="29.633" gradientUnits="userSpaceOnUse">
<stop offset="0.9999" stop-color="white"/>
<stop offset="1" stop-color="white" stop-opacity="0"/>
</linearGradient>
</defs>
</svg>
