<svg width="27" height="27" viewBox="0 0 27 27" fill="none" xmlns="http://www.w3.org/2000/svg">
<g clip-path="url(#clip0)">
<path d="M26.999 6.24949C26.9919 6.09361 26.8992 5.94753 26.7583 5.87824L18.3608 1.67953C18.1617 1.58002 17.9198 1.64578 17.7985 1.83235L12.1245 10.5617L9.2023 6.03233C9.16032 5.9672 9.09973 5.91294 9.03044 5.87824L0.633015 1.67953C0.347089 1.53657 -8.30078e-06 1.75172 -8.30078e-06 2.07077V6.26953C-8.30078e-06 6.51111 0.195742 6.70691 0.437371 6.70691C0.678947 6.70691 0.874749 6.51116 0.874749 6.26953V2.77841L8.39741 6.53974V24.2226L0.874697 20.4614V8.13569C0.874697 7.89412 0.678947 7.69832 0.437318 7.69832C0.195742 7.69832 -6.10352e-05 7.89407 -6.10352e-05 8.13569V20.7317C-6.10352e-05 20.8974 0.0935425 21.0488 0.241726 21.1229L8.63915 25.3216C8.92534 25.4647 9.27212 25.2491 9.27212 24.9304V16.7741L26.367 25.3216C26.6532 25.4647 27 25.2491 27 24.9304V6.26948C27 6.26273 26.9993 6.25619 26.999 6.24949ZM9.27212 15.7961V7.75411L16.9312 19.6257L9.27212 15.7961ZM26.1253 24.2227L18.7773 20.5487L24.503 10.6877C24.6242 10.4788 24.5532 10.2112 24.3443 10.0899C24.1355 9.96869 23.8678 10.0396 23.7464 10.2485L18.1456 19.8945L12.6441 11.3672L18.319 2.63661L25.9506 6.45241L24.5591 8.84898C24.4378 9.05786 24.5089 9.32554 24.7178 9.44683C24.9265 9.56796 25.1942 9.49708 25.3156 9.28815L26.1253 7.8937V24.2227Z" fill="url(#paint0_linear)"/>
</g>
<defs>
<linearGradient id="paint0_linear" x1="13.5" y1="1.6333" x2="13.5" y2="25.3667" gradientUnits="userSpaceOnUse">
<stop offset="0.9999" stop-color="white"/>
<stop offset="1" stop-color="white" stop-opacity="0"/>
</linearGradient>
<clipPath id="clip0">
<rect width="27" height="27" fill="white"/>
</clipPath>
</defs>
</svg>
