<svg height="470pt" viewBox="0 -34 470 470" width="470pt" xmlns="http://www.w3.org/2000/svg"><path d="m244 61v-51c0-5.523438-4.476562-10-10-10s-10 4.476562-10 10v51c0 5.523438 4.476562 10 10 10s10-4.476562 10-10zm0 0"/><path d="m460 226h-51c-5.523438 0-10 4.476562-10 10s4.476562 10 10 10h51c5.523438 0 10-4.476562 10-10s-4.476562-10-10-10zm0 0"/><path d="m71 236c0-5.523438-4.476562-10-10-10h-51c-5.523438 0-10 4.476562-10 10s4.476562 10 10 10h51c5.523438 0 10-4.476562 10-10zm0 0"/><path d="m365.257812 118.632812 35.472657-35.472656c3.878906-3.910156 3.863281-10.21875-.03125-14.109375-3.890625-3.894531-10.199219-3.910156-14.109375-.03125l-35.472656 35.472657c-2.542969 2.519531-3.546876 6.210937-2.625 9.675781.925781 3.460937 3.628906 6.164062 7.089843 7.089843 3.464844.921876 7.15625-.082031 9.675781-2.625zm0 0"/><path d="m104.742188 118.632812c2.519531 2.542969 6.210937 3.546876 9.675781 2.625 3.460937-.925781 6.164062-3.628906 7.089843-7.089843.921876-3.464844-.082031-7.15625-2.625-9.675781l-35.472656-35.472657c-3.910156-3.878906-10.21875-3.863281-14.109375.03125-3.894531 3.890625-3.910156 10.199219-.03125 14.109375zm0 0"/><path d="m445 301h-97.699219c32.308594-54.765625 20.40625-124.855469-28.179687-165.878906-48.582032-41.027344-119.671875-41.027344-168.253906 0-48.582032 41.023437-60.488282 111.113281-28.175782 165.878906h-98.691406c-5.523438 0-10 4.476562-10 10s4.476562 10 10 10h421c5.523438 0 10-4.476562 10-10s-4.476562-10-10-10zm-320.394531-66.25c0-60.96875 49.425781-110.394531 110.394531-110.394531s110.394531 49.425781 110.394531 110.394531c.09375 23.90625-7.667969 47.183594-22.09375 66.25h-176.597656c-14.320313-19.121094-22.074219-42.359375-22.097656-66.25zm0 0"/><path d="m395 341h-321c-5.523438 0-10 4.476562-10 10s4.476562 10 10 10h321c5.523438 0 10-4.476562 10-10s-4.476562-10-10-10zm0 0"/><path d="m345 381h-221c-5.523438 0-10 4.476562-10 10s4.476562 10 10 10h221c5.523438 0 10-4.476562 10-10s-4.476562-10-10-10zm0 0"/></svg>