<?xml version="1.0" encoding="iso-8859-1"?>
<!-- Generator: Adobe Illustrator 19.0.0, SVG Export Plug-In . SVG Version: 6.00 Build 0)  -->
<svg version="1.1" id="Capa_1" xmlns="http://www.w3.org/2000/svg" xmlns:xlink="http://www.w3.org/1999/xlink" x="0px" y="0px"
	 viewBox="0 0 512 512" style="enable-background:new 0 0 512 512;" xml:space="preserve">
<g>
	<g>
		<rect y="290.133" width="512" height="17.067"/>
	</g>
</g>
<g>
	<g>
		<rect x="324.267" y="341.333" width="102.4" height="17.067"/>
	</g>
</g>
<g>
	<g>
		<rect x="162.133" y="341.333" width="145.067" height="17.067"/>
	</g>
</g>
<g>
	<g>
		<rect x="85.333" y="341.333" width="59.733" height="17.067"/>
	</g>
</g>
<g>
	<g>
		<rect x="230.4" y="392.533" width="162.133" height="17.067"/>
	</g>
</g>
<g>
	<g>
		<rect x="119.467" y="392.533" width="93.867" height="17.067"/>
	</g>
</g>
<g>
	<g>
		<rect x="196.267" y="443.733" width="170.667" height="17.067"/>
	</g>
</g>
<g>
	<g>
		<rect x="145.067" y="443.733" width="34.133" height="17.067"/>
	</g>
</g>
<g>
	<g>
		<rect x="187.733" y="494.933" width="136.533" height="17.067"/>
	</g>
</g>
<g>
	<g>
		<path d="M420.318,159.104C380.911,68.506,275.14,26.846,184.516,66.261C93.909,105.677,52.258,211.456,91.674,302.063l15.65-6.801
			c-17.28-39.714-18.048-83.78-2.185-124.075c15.863-40.294,46.473-72.004,86.187-89.276c81.971-35.661,177.681,2.022,213.35,84.002
			c17.886,41.097,17.886,88.243,0,129.34l15.65,6.818C440.09,256.64,440.09,204.535,420.318,159.104z"/>
	</g>
</g>
<g>
	<g>
		<path d="M34.133,13.559C24.866,4.804,12.8,0,0,0v17.067c8.713,0,16.905,3.388,23.066,9.532l5.035,5.035
			c1.664,1.664,3.849,2.5,6.033,2.5c2.185,0,4.369-0.836,6.033-2.5l5.026-5.026c6.17-6.153,14.362-9.54,23.074-9.54V0
			C55.467,0,43.409,4.804,34.133,13.559z"/>
	</g>
</g>
<g>
	<g>
		<path d="M59.733,73.293C50.466,64.538,38.4,59.733,25.6,59.733V76.8c8.713,0,16.905,3.388,23.066,9.532l5.035,5.035
			c1.664,1.664,3.849,2.5,6.033,2.5s4.369-0.836,6.033-2.5l5.026-5.026c6.17-6.153,14.362-9.54,23.074-9.54V59.733
			C81.067,59.733,69.009,64.538,59.733,73.293z"/>
	</g>
</g>
<g>
	<g>
		<path d="M119.467,30.626c-9.267-8.755-21.333-13.56-34.133-13.56v17.067c8.713,0,16.905,3.388,23.066,9.532l5.035,5.035
			c1.664,1.664,3.849,2.5,6.033,2.5s4.369-0.836,6.033-2.5l5.026-5.026c6.17-6.153,14.362-9.54,23.074-9.54V17.067
			C140.8,17.067,128.742,21.871,119.467,30.626z"/>
	</g>
</g>
<g>
</g>
<g>
</g>
<g>
</g>
<g>
</g>
<g>
</g>
<g>
</g>
<g>
</g>
<g>
</g>
<g>
</g>
<g>
</g>
<g>
</g>
<g>
</g>
<g>
</g>
<g>
</g>
<g>
</g>
</svg>
