<?xml version="1.0" encoding="iso-8859-1"?>
<!-- Generator: Adobe Illustrator 19.0.0, SVG Export Plug-In . SVG Version: 6.00 Build 0)  -->
<svg version="1.1" id="Capa_1" xmlns="http://www.w3.org/2000/svg" xmlns:xlink="http://www.w3.org/1999/xlink" x="0px" y="0px"
	 viewBox="0 0 512 512" style="enable-background:new 0 0 512 512;" xml:space="preserve">
<g>
	<g>
		<g>
			<path d="M169.6,194.944l-21.552-23.68c-8.745,8.003-16.579,16.948-23.36,26.672l26.256,18.304
				C156.35,208.468,162.607,201.325,169.6,194.944z"/>
			<path d="M218.624,166.896l-9.312-30.608c-11.362,3.452-22.3,8.17-32.608,14.064l15.904,27.792
				C200.83,173.429,209.557,169.656,218.624,166.896z"/>
			<path d="M416,289.344c-0.097-88.325-71.675-159.903-160-160c-3.968,0-7.92,0.144-11.808,0.416l2.272,32
				c3.2-0.224,6.32-0.336,9.6-0.336c70.569-0.121,127.874,56.988,127.995,127.557c0.042,24.489-6.954,48.474-20.155,69.099
				l-45.712-30.4c-37.763-24.61-86.493-24.61-124.256,0l-45.712,30.4c-22.345-34.874-26.36-78.428-10.768-116.8l-29.632-12.064
				C88.237,277.381,93.378,332.074,121.6,375.744L7.12,452.032l17.76,26.624L211.632,354.16c26.966-17.583,61.77-17.583,88.736,0
				L487.12,478.656l17.76-26.624L390.4,375.744C407.046,349.996,415.932,320.004,416,289.344z"/>
			<rect x="240" y="33.344" width="32" height="64"/>
			<rect x="49.618" y="98.947" transform="matrix(0.7071 0.7071 -0.7071 0.7071 105.1858 -24.0456)" width="64" height="32"/>
			<rect x="448" y="273.344" width="64" height="32"/>
			<rect y="273.344" width="64" height="32"/>
			<rect x="414.407" y="82.943" transform="matrix(0.7071 0.7071 -0.7071 0.7071 207.3397 -270.6775)" width="32" height="64"/>
		</g>
	</g>
</g>
<g>
</g>
<g>
</g>
<g>
</g>
<g>
</g>
<g>
</g>
<g>
</g>
<g>
</g>
<g>
</g>
<g>
</g>
<g>
</g>
<g>
</g>
<g>
</g>
<g>
</g>
<g>
</g>
<g>
</g>
</svg>
