<svg width="470" height="470" viewBox="0 0 470 470" fill="none" xmlns="http://www.w3.org/2000/svg">
<path d="M244 95V44C244 38.4766 239.523 34 234 34C228.477 34 224 38.4766 224 44V95C224 100.523 228.477 105 234 105C239.523 105 244 100.523 244 95Z" fill="white"/>
<path d="M460 260H409C403.477 260 399 264.477 399 270C399 275.523 403.477 280 409 280H460C465.523 280 470 275.523 470 270C470 264.477 465.523 260 460 260Z" fill="white"/>
<path d="M71 270C71 264.477 66.5234 260 61 260H10C4.47656 260 0 264.477 0 270C0 275.523 4.47656 280 10 280H61C66.5234 280 71 275.523 71 270Z" fill="white"/>
<path d="M365.258 152.633L400.73 117.16C404.609 113.25 404.594 106.941 400.699 103.051C396.809 99.1563 390.5 99.1406 386.59 103.02L351.117 138.492C348.574 141.012 347.57 144.703 348.492 148.168C349.418 151.629 352.121 154.332 355.582 155.258C359.047 156.18 362.738 155.176 365.258 152.633V152.633Z" fill="white"/>
<path d="M104.742 152.633C107.262 155.176 110.953 156.18 114.418 155.258C117.879 154.332 120.582 151.629 121.508 148.168C122.43 144.703 121.426 141.012 118.883 138.492L83.4102 103.02C79.5 99.1406 73.1914 99.1563 69.3008 103.051C65.4063 106.941 65.3907 113.25 69.2696 117.16L104.742 152.633Z" fill="white"/>
<path d="M445 335H347.301C379.609 280.234 367.707 210.145 319.121 169.121C270.539 128.094 199.449 128.094 150.867 169.121C102.285 210.145 90.3789 280.234 122.691 335H24C18.4766 335 14 339.477 14 345C14 350.523 18.4766 355 24 355H445C450.523 355 455 350.523 455 345C455 339.477 450.523 335 445 335ZM124.605 268.75C124.605 207.781 174.031 158.355 235 158.355C295.969 158.355 345.395 207.781 345.395 268.75C345.488 292.656 337.727 315.934 323.301 335H146.703C132.383 315.879 124.629 292.641 124.605 268.75Z" fill="white"/>
<path d="M395 375H74C68.4766 375 64 379.477 64 385C64 390.523 68.4766 395 74 395H395C400.523 395 405 390.523 405 385C405 379.477 400.523 375 395 375Z" fill="white"/>
<path d="M345 415H124C118.477 415 114 419.477 114 425C114 430.523 118.477 435 124 435H345C350.523 435 355 430.523 355 425C355 419.477 350.523 415 345 415Z" fill="white"/>
</svg>
