<svg width="33" height="33" viewBox="0 0 33 33" fill="none" xmlns="http://www.w3.org/2000/svg">
<path d="M10.9313 12.5648L9.54219 11.0385C8.97854 11.5543 8.47362 12.1309 8.03656 12.7576L9.72884 13.9374C10.0773 13.4364 10.4806 12.976 10.9313 12.5648Z" fill="url(#paint0_linear)"/>
<path d="M14.091 10.757L13.4908 8.78418C12.7585 9.00667 12.0535 9.31076 11.3891 9.69065L12.4142 11.4819C12.9441 11.178 13.5066 10.9349 14.091 10.757Z" fill="url(#paint1_linear)"/>
<path d="M26.8125 18.6491C26.8063 12.9563 22.1928 8.34289 16.5 8.33664C16.2443 8.33664 15.9895 8.34592 15.739 8.36345L15.8854 10.426C16.0916 10.4115 16.2927 10.4043 16.5041 10.4043C21.0525 10.3965 24.746 14.0774 24.7538 18.6257C24.7565 20.2041 24.3056 21.75 23.4548 23.0794L20.5085 21.12C18.0745 19.5338 14.9337 19.5338 12.4998 21.12L9.55352 23.0794C8.11331 20.8317 7.85453 18.0245 8.85949 15.5513L6.94961 14.7737C5.68717 17.8781 6.01852 21.4032 7.83752 24.2179L0.458923 29.1349L1.60361 30.8509L13.6404 22.8267C15.3784 21.6935 17.6216 21.6935 19.3597 22.8267L31.3964 30.8509L32.5411 29.1349L25.1625 24.2179C26.2354 22.5584 26.8081 20.6253 26.8125 18.6491Z" fill="url(#paint2_linear)"/>
<path d="M17.5312 2.14914H15.4688V6.27414H17.5312V2.14914Z" fill="url(#paint3_linear)"/>
<path d="M7.44816 8.13779L4.53137 5.22101L3.07298 6.6794L5.98977 9.59618L7.44816 8.13779Z" fill="url(#paint4_linear)"/>
<path d="M33 17.6179H28.875V19.6804H33V17.6179Z" fill="url(#paint5_linear)"/>
<path d="M4.125 17.6179H0V19.6804H4.125V17.6179Z" fill="url(#paint6_linear)"/>
<path d="M29.9285 6.67904L28.4701 5.22064L25.5533 8.13743L27.0117 9.59582L29.9285 6.67904Z" fill="url(#paint7_linear)"/>
<defs>
<linearGradient id="paint0_linear" x1="9.48392" y1="11.0385" x2="9.48392" y2="13.9374" gradientUnits="userSpaceOnUse">
<stop offset="0.9999" stop-color="white"/>
<stop offset="1" stop-color="white" stop-opacity="0"/>
</linearGradient>
<linearGradient id="paint1_linear" x1="12.7401" y1="8.78418" x2="12.7401" y2="11.4819" gradientUnits="userSpaceOnUse">
<stop offset="0.9999" stop-color="white"/>
<stop offset="1" stop-color="white" stop-opacity="0"/>
</linearGradient>
<linearGradient id="paint2_linear" x1="16.5" y1="8.33664" x2="16.5" y2="30.8509" gradientUnits="userSpaceOnUse">
<stop offset="0.9999" stop-color="white"/>
<stop offset="1" stop-color="white" stop-opacity="0"/>
</linearGradient>
<linearGradient id="paint3_linear" x1="16.5" y1="2.14914" x2="16.5" y2="6.27414" gradientUnits="userSpaceOnUse">
<stop offset="0.9999" stop-color="white"/>
<stop offset="1" stop-color="white" stop-opacity="0"/>
</linearGradient>
<linearGradient id="paint4_linear" x1="5.98977" y1="6.6794" x2="4.53137" y2="8.13779" gradientUnits="userSpaceOnUse">
<stop offset="0.9999" stop-color="white"/>
<stop offset="1" stop-color="white" stop-opacity="0"/>
</linearGradient>
<linearGradient id="paint5_linear" x1="30.9375" y1="17.6179" x2="30.9375" y2="19.6804" gradientUnits="userSpaceOnUse">
<stop offset="0.9999" stop-color="white"/>
<stop offset="1" stop-color="white" stop-opacity="0"/>
</linearGradient>
<linearGradient id="paint6_linear" x1="2.0625" y1="17.6179" x2="2.0625" y2="19.6804" gradientUnits="userSpaceOnUse">
<stop offset="0.9999" stop-color="white"/>
<stop offset="1" stop-color="white" stop-opacity="0"/>
</linearGradient>
<linearGradient id="paint7_linear" x1="29.1993" y1="5.94984" x2="26.2825" y2="8.86663" gradientUnits="userSpaceOnUse">
<stop offset="0.9999" stop-color="white"/>
<stop offset="1" stop-color="white" stop-opacity="0"/>
</linearGradient>
</defs>
</svg>
