<svg width="85" height="85" viewBox="0 0 85 85" fill="none" xmlns="http://www.w3.org/2000/svg">
<path d="M42.5 0C19.0655 0 0 19.0655 0 42.5C0 65.9345 19.0655 85 42.5 85C65.9345 85 85 65.9345 85 42.5C85 19.0655 65.9345 0 42.5 0ZM42.5 82.1667C20.6281 82.1667 2.83333 64.3719 2.83333 42.5C2.83333 20.6281 20.6281 2.83333 42.5 2.83333C64.3719 2.83333 82.1667 20.6281 82.1667 42.5C82.1667 64.3719 64.3719 82.1667 42.5 82.1667Z" fill="url(#paint0_linear)" fill-opacity="0.95"/>
<path d="M42.5 8.5C41.718 8.5 41.0833 9.13325 41.0833 9.91667V42.5H19.8333C19.0513 42.5 18.4167 43.1333 18.4167 43.9167C18.4167 44.7001 19.0513 45.3333 19.8333 45.3333H42.5C43.282 45.3333 43.9167 44.7001 43.9167 43.9167V9.91667C43.9167 9.13325 43.282 8.5 42.5 8.5Z" fill="url(#paint1_linear)" fill-opacity="0.95"/>
<defs>
<linearGradient id="paint0_linear" x1="42.5" y1="0" x2="42.5" y2="85" gradientUnits="userSpaceOnUse">
<stop offset="0.9999" stop-color="white"/>
<stop offset="1" stop-color="white" stop-opacity="0"/>
</linearGradient>
<linearGradient id="paint1_linear" x1="31.1667" y1="8.5" x2="31.1667" y2="45.3333" gradientUnits="userSpaceOnUse">
<stop offset="0.9999" stop-color="white"/>
<stop offset="1" stop-color="white" stop-opacity="0"/>
</linearGradient>
</defs>
</svg>
