<svg width="30" height="30" viewBox="0 0 30 30" fill="none" xmlns="http://www.w3.org/2000/svg">
<g clip-path="url(#clip0)">
<path d="M30 5.69892C28.8958 6.18819 27.7111 6.52 26.4663 6.66814C27.7373 5.90701 28.7103 4.69975 29.1714 3.26564C27.9791 3.97049 26.6631 4.4823 25.2608 4.75975C24.138 3.56186 22.5407 2.81573 20.7692 2.81573C17.3705 2.81573 14.6147 5.57147 14.6147 8.96833C14.6147 9.4501 14.6691 9.92064 14.7741 10.3706C9.66006 10.1137 5.12531 7.66358 2.09026 3.94049C1.55972 4.84784 1.2579 5.9051 1.2579 7.03368C1.2579 9.16892 2.34521 11.0529 3.99491 12.1552C2.98634 12.1215 2.03776 11.844 1.20732 11.3828V11.4597C1.20732 14.4404 3.32942 16.928 6.14325 17.4942C5.62771 17.6329 5.08408 17.7098 4.52168 17.7098C4.12428 17.7098 3.73996 17.6704 3.36315 17.5954C4.14673 20.0419 6.41883 21.8209 9.11084 21.8697C7.0056 23.5194 4.35109 24.4998 1.4679 24.4998C0.971139 24.4998 0.481826 24.4698 6.10352e-05 24.4154C2.72393 26.1645 5.95771 27.1843 9.4333 27.1843C20.7543 27.1843 26.9425 17.8073 26.9425 9.6751L26.9219 8.87838C28.131 8.01598 29.177 6.93245 30 5.69892Z" fill="url(#paint0_linear)"/>
</g>
<defs>
<linearGradient id="paint0_linear" x1="15" y1="2.81573" x2="15" y2="27.1843" gradientUnits="userSpaceOnUse">
<stop offset="0.9999" stop-color="white"/>
<stop offset="1" stop-color="white" stop-opacity="0"/>
</linearGradient>
<clipPath id="clip0">
<rect width="30" height="30" fill="white"/>
</clipPath>
</defs>
</svg>
